HIERARCHY
ROOT Hips
{
	OFFSET 0.000000 8.830580 0.000000
	CHANNELS 6 Xposition Yposition Zposition Zrotation Yrotation Xrotation 
	JOINT Spine
	{
		OFFSET 0.000000 0.010000 0.000000
		CHANNELS 3 Zrotation Yrotation Xrotation
		JOINT Spine1
		{
			OFFSET 0.000000 2.459130 0.000000
			CHANNELS 3 Zrotation Yrotation Xrotation
			JOINT Neck
			{
				OFFSET 0.000000 2.484630 0.000000
				CHANNELS 3 Zrotation Yrotation Xrotation
				JOINT Head_virtual
				{
					OFFSET 0.000000 0.000000 0.000000
					CHANNELS 3 Zrotation Yrotation Xrotation
					JOINT Head
					{
						OFFSET 0.000000 0.927525 0.000000
						CHANNELS 3 Zrotation Yrotation Xrotation
						End Site
						{
							OFFSET 0.000000 0.000000 0.000000
						}
					}
				}
				JOINT LeftUpArm_virtual
				{
					OFFSET 0.000000 0.000000 0.000000
					CHANNELS 3 Zrotation Yrotation Xrotation
					JOINT LeftUpArm
					{
						OFFSET 1.248820 0.000000 0.000000
						CHANNELS 3 Zrotation Yrotation Xrotation
						JOINT LeftForeArm
						{
							OFFSET 2.597580 0.000000 0.000000
							CHANNELS 3 Zrotation Yrotation Xrotation
							JOINT LeftHand
							{
								OFFSET 2.455420 0.000000 0.000000
								CHANNELS 3 Zrotation Yrotation Xrotation
								End Site
								{
									OFFSET 0.000000 0.000000 0.000000
								}
							}
						}
					}
				}
				JOINT RightUpArm_virtual
				{
					OFFSET -0.000000 -0.000000 -0.000000
					CHANNELS 3 Zrotation Yrotation Xrotation
					JOINT RightUpArm
					{
						OFFSET -1.248820 -0.000000 -0.000000
						CHANNELS 3 Zrotation Yrotation Xrotation
						JOINT RightForeArm
						{
							OFFSET -2.597580 -0.000000 -0.000000
							CHANNELS 3 Zrotation Yrotation Xrotation
							JOINT RightHand
							{
								OFFSET -2.455420 -0.000000 -0.000000
								CHANNELS 3 Zrotation Yrotation Xrotation
								End Site
								{
									OFFSET 0.000000 0.000000 0.000000
								}
							}
						}
					}
				}
			}
		}
	}
	JOINT LeftUpLeg
	{
		OFFSET 1.271939 0.000000 0.000000
		CHANNELS 3 Zrotation Yrotation Xrotation
		JOINT LeftLowLeg
		{
			OFFSET 0.000000 -4.342910 0.000000
			CHANNELS 3 Zrotation Yrotation Xrotation
			JOINT LeftFoot
			{
				OFFSET 0.000000 -4.487670 0.000000
				CHANNELS 3 Zrotation Yrotation Xrotation
				JOINT LeftToeBase
				{
					OFFSET 0.000000 0.000000 1.515070
					CHANNELS 3 Zrotation Yrotation Xrotation
					End Site
					{
						OFFSET 0.000000 0.000000 0.000000
					}
				}
			}
		}
	}
	JOINT RightUpLeg
	{
		OFFSET -1.271939 0.000000 0.000000
		CHANNELS 3 Zrotation Yrotation Xrotation
		JOINT RightLowLeg
		{
			OFFSET 0.000000 -4.342910 0.000000
			CHANNELS 3 Zrotation Yrotation Xrotation
			JOINT RightFoot
			{
				OFFSET 0.000000 -4.487670 0.000000
				CHANNELS 3 Zrotation Yrotation Xrotation
				JOINT RightToeBase
				{
					OFFSET 0.000000 0.000000 1.515070
					CHANNELS 3 Zrotation Yrotation Xrotation
					End Site
					{
						OFFSET 0.000000 0.000000 0.000000
					}
				}
			}
		}
	}
}
MOTION
Frames: 10
Frame Time: 0.041667
-19.668326 5.342826 45.453208 -171.302597 0.370597 152.511054 5.844775 0.531391 8.486167 -14.531433 -4.897259 20.840503 0.000000 0.000000 0.000000 9.640331 -2.001744 7.091656 0.854832 22.562122 -60.321533 -17.221201 5.827670 4.391000 -33.704300 -7.874720 42.336700 0.000000 -82.152603 0.000000 47.766499 -19.278200 18.915100 19.694700 -9.693940 -1.679450 8.098370 -6.990400 -17.532499 0.000000 58.452000 0.000000 -18.258499 5.007300 -0.625679 -1.393447 2.919402 -53.656045 0.000000 0.000000 76.679604 1.884111 -17.717350 14.985773 0.000000 0.000000 -33.773899 11.142374 3.798413 -63.705893 0.000000 0.000000 101.148003 19.414155 -2.355510 10.826839 0.000000 0.000000 -27.366100 
-19.669214 5.343196 45.473768 -171.197350 0.946709 152.333263 5.960766 0.626408 9.118200 -14.587932 -4.863179 20.431117 0.000000 0.000000 0.000000 9.533268 -1.763580 7.148585 1.053730 22.605740 -60.328031 -17.220600 5.843310 4.210510 -33.749699 -7.561790 42.378502 0.000000 -82.271004 0.000000 47.912201 -19.456200 18.964600 19.649599 -9.507680 -1.638070 7.901990 -7.042340 -18.549801 0.000000 56.517300 0.000000 -17.820801 4.782380 -0.529612 -0.694630 2.816391 -53.659069 0.000000 0.000000 76.684700 0.166454 -17.850333 15.759870 0.000000 0.000000 -34.003901 10.534304 5.254313 -64.516960 0.000000 0.000000 98.160797 18.599306 -2.890136 11.134974 0.000000 0.000000 -27.217500 
-19.671192 5.343726 45.492645 -171.087360 1.404394 152.095989 6.075741 0.661156 9.752225 -14.655323 -4.849113 20.233371 0.000000 0.000000 0.000000 9.485994 -1.623622 7.110700 1.003219 22.726146 -60.607490 -17.235800 5.844510 4.163490 -33.644901 -7.380570 42.335899 0.000000 -82.538399 0.000000 48.072498 -19.681601 18.914900 19.617500 -9.496550 -1.684340 7.706930 -6.895300 -19.507401 0.000000 54.710899 0.000000 -17.477600 4.304000 -0.335179 -0.111984 2.627055 -53.566195 0.000000 0.000000 76.750099 -1.087284 -17.964720 16.207546 0.000000 0.000000 -33.958200 9.850678 6.482365 -65.365355 0.000000 0.000000 94.884598 17.955046 -3.047523 11.836391 0.000000 0.000000 -27.572200 
-19.674690 5.342736 45.508999 -170.966663 1.836739 151.803545 6.137815 0.653876 10.306678 -14.602881 -4.835696 20.291688 0.000000 0.000000 0.000000 9.389281 -1.489356 6.898524 1.027628 22.790304 -60.899792 -17.273100 5.856180 4.231470 -33.490002 -7.360120 42.240799 0.000000 -82.915100 0.000000 48.152401 -19.870899 18.728300 19.537399 -9.345140 -1.799440 7.495540 -6.896100 -20.581800 0.000000 53.098801 0.000000 -16.802999 3.602090 -0.063113 0.337465 2.474689 -53.355471 0.000000 0.000000 76.797096 -1.314379 -17.827217 16.370711 0.000000 0.000000 -33.931299 9.583051 7.319350 -66.211768 0.000000 0.000000 91.650902 18.675241 -3.435271 12.134836 0.000000 0.000000 -27.821800 
-19.678898 5.341051 45.523924 -170.886189 2.209020 151.509618 6.349776 0.707430 10.946845 -14.813167 -4.752860 20.235109 0.000000 0.000000 0.000000 9.557786 -1.529260 6.942676 0.664787 23.092317 -61.428950 -17.168400 5.766970 4.495480 -33.199501 -7.437490 42.200401 0.000000 -83.337898 0.000000 48.223801 -20.083200 18.862499 19.666599 -9.448980 -1.813900 7.220380 -6.825870 -21.682899 0.000000 51.538601 0.000000 -16.302401 2.893570 0.162700 0.588039 2.370839 -53.032313 0.000000 0.000000 76.713600 -0.562678 -17.368132 16.302829 0.000000 0.000000 -33.963900 9.011160 8.170941 -67.047637 0.000000 0.000000 88.233299 17.016086 -3.096606 13.005111 0.000000 0.000000 -29.267200 
-19.682932 5.336827 45.534755 -170.787390 2.536313 151.285532 6.466697 0.694317 11.421550 -14.859485 -4.735784 20.262696 0.000000 0.000000 0.000000 9.635853 -1.540662 6.854737 0.459920 23.274777 -61.745334 -17.105000 5.723330 4.349590 -33.011398 -7.326490 42.451401 0.000000 -83.715599 0.000000 48.099400 -20.099701 19.202801 19.658199 -9.441120 -1.919550 6.988260 -6.777160 -22.668200 0.000000 49.952900 0.000000 -15.959100 2.910990 -0.007449 0.728906 2.261934 -52.757985 0.000000 0.000000 76.648201 0.563257 -16.759184 16.107839 0.000000 0.000000 -33.736300 8.801681 8.819851 -67.872431 0.000000 0.000000 84.909599 17.378543 -2.806978 12.681629 0.000000 0.000000 -28.200500 
-19.688564 5.329352 45.549387 -170.628637 2.980475 150.957199 6.790460 0.700789 12.156923 -14.997296 -4.675628 20.092031 0.000000 0.000000 0.000000 9.776172 -1.613019 6.755963 0.283017 23.468189 -61.928029 -17.033400 5.588270 4.337030 -32.750401 -7.239610 42.580399 0.000000 -84.032402 0.000000 48.022900 -20.115101 19.525200 19.667700 -9.473730 -2.012040 6.867520 -6.784180 -23.611601 0.000000 48.517799 0.000000 -16.112000 3.025120 -0.530739 0.989457 2.134560 -52.461611 0.000000 0.000000 76.679100 1.658162 -16.075226 16.006755 0.000000 0.000000 -33.558001 9.070036 9.275789 -68.560047 0.000000 0.000000 81.639000 16.939356 -2.997176 12.773527 0.000000 0.000000 -27.939900 
-19.691286 5.324766 45.556051 -170.458443 3.294899 150.814746 7.046938 0.696792 12.531142 -15.124274 -4.593515 20.153628 0.000000 0.000000 0.000000 9.822843 -1.470833 6.641065 0.328239 23.711470 -62.173084 -16.964500 5.391480 4.318660 -32.489899 -7.174590 42.612900 0.000000 -84.234497 0.000000 48.161701 -20.143999 19.210100 19.698900 -9.501020 -2.168660 6.885320 -6.986430 -24.446100 0.000000 47.512600 0.000000 -16.276501 2.783230 -1.941030 1.305588 1.775779 -52.367576 0.000000 0.000000 76.746201 2.198957 -15.465615 16.004996 0.000000 0.000000 -33.504000 9.494260 9.586122 -69.378917 0.000000 0.000000 78.515503 15.767230 -3.513055 13.001238 0.000000 0.000000 -28.614600 
-19.693364 5.320496 45.558328 -170.295255 3.752969 150.597534 7.187516 0.681876 12.856826 -15.000020 -4.506365 20.431569 0.000000 0.000000 0.000000 9.796171 -1.369837 6.293428 0.138074 23.915285 -62.328625 -17.075600 5.383360 4.132430 -32.246498 -7.215350 42.599400 0.000000 -84.363701 0.000000 48.374100 -20.069599 18.669500 19.645599 -9.395290 -2.323820 7.031780 -7.061070 -25.597200 0.000000 46.716999 0.000000 -16.652500 2.500560 -2.919840 1.760423 1.398460 -52.311383 0.000000 0.000000 77.080704 2.471343 -14.828007 16.075848 0.000000 0.000000 -33.479799 9.824908 10.115350 -70.053747 0.000000 0.000000 75.641701 14.852710 -3.200375 13.043381 0.000000 0.000000 -29.021800 
-19.696640 5.317285 45.563007 -170.195620 4.153543 150.393739 7.374235 0.699906 13.249506 -14.989313 -4.391861 20.630827 0.000000 0.000000 0.000000 9.919382 -1.445377 6.041727 -0.270520 24.173474 -62.639569 -17.201599 5.288650 4.418610 -31.874901 -7.533870 42.199402 0.000000 -84.469002 0.000000 48.668999 -20.228701 17.982100 19.721600 -9.333930 -2.476300 7.242320 -7.273660 -26.775801 0.000000 46.298901 0.000000 -17.031700 2.257370 -3.931250 2.136382 1.108858 -52.197728 0.000000 0.000000 77.269997 2.451558 -14.400301 16.136525 0.000000 0.000000 -33.386000 11.297688 10.064194 -70.824383 0.000000 0.000000 73.210602 16.665842 -4.639573 13.493587 0.000000 0.000000 -30.688000 
